<?xml version="1.0" standalone="no"?>
<!DOCTYPE svg PUBLIC "-//W3C//DTD SVG 20010904//EN"
 "http://www.w3.org/TR/2001/REC-SVG-20010904/DTD/svg10.dtd">
<svg version="1.0" xmlns="http://www.w3.org/2000/svg"
 width="2000.000000pt" height="2000.000000pt" viewBox="0 0 2000.000000 2000.000000"
 preserveAspectRatio="xMidYMid meet">

<g transform="translate(0.000000,2000.000000) scale(0.100000,-0.100000)"
fill="#000000" stroke="none">
<path d="M1850 12373 c0 -10 0 -942 0 -2072 0 -1130 3 -2058 7 -2062 4 -4 31
-9 58 -12 84 -8 248 -35 280 -45 17 -6 65 -13 109 -17 43 -3 88 -12 100 -20
11 -7 46 -16 76 -20 30 -4 64 -13 75 -19 11 -7 46 -16 78 -20 32 -3 71 -13 85
-20 15 -8 47 -17 72 -21 25 -4 56 -13 70 -21 14 -7 44 -18 67 -24 23 -6 45
-15 48 -20 3 -6 16 -10 28 -10 13 0 40 -9 61 -19 21 -11 52 -23 69 -27 18 -4
48 -15 67 -25 19 -11 42 -19 51 -19 9 0 22 -6 28 -14 7 -8 25 -18 41 -21 16
-3 34 -13 41 -21 6 -8 17 -14 25 -14 17 0 50 -15 99 -45 22 -13 51 -29 65 -34
14 -6 32 -16 40 -21 8 -6 26 -15 40 -21 14 -6 32 -15 40 -20 8 -5 26 -15 40
-22 25 -12 114 -69 183 -116 20 -14 52 -35 71 -46 52 -31 108 -72 225 -164
213 -169 413 -364 557 -543 42 -51 88 -106 102 -123 15 -16 40 -50 57 -75 16
-25 34 -50 39 -55 20 -19 53 -70 60 -93 4 -12 11 -22 16 -22 8 0 39 -46 67
-100 8 -14 25 -43 38 -65 13 -22 31 -53 40 -70 8 -16 26 -48 40 -70 13 -22 29
-51 34 -65 6 -14 16 -32 21 -40 6 -8 15 -26 20 -40 6 -14 15 -32 20 -40 6 -8
13 -22 16 -30 3 -8 16 -38 30 -66 13 -28 24 -58 24 -66 0 -9 6 -21 14 -27 8
-7 17 -27 20 -46 4 -21 13 -35 21 -35 13 0 15 132 15 1006 0 674 -3 1012 -10
1025 -6 10 -25 26 -43 34 -60 29 -92 48 -112 65 -11 9 -42 30 -70 46 -61 35
-378 350 -422 419 -18 28 -38 57 -45 65 -27 31 -58 82 -58 95 0 8 -8 22 -19
32 -10 10 -22 29 -26 43 -4 14 -13 32 -20 40 -7 8 -16 26 -20 40 -4 14 -13 32
-20 40 -7 8 -16 29 -20 47 -3 17 -12 37 -20 43 -7 6 -17 30 -20 53 -4 23 -13
49 -20 57 -7 8 -16 37 -20 65 -4 27 -13 61 -20 75 -7 14 -16 59 -20 100 -4 41
-13 103 -21 138 -17 74 -19 320 -4 372 14 47 29 180 23 197 -10 26 -58 40
-156 47 -54 4 -115 13 -136 21 -22 7 -81 16 -132 20 -52 4 -108 13 -125 20
-17 7 -73 16 -125 20 -51 4 -111 14 -133 21 -21 8 -78 17 -125 20 -47 3 -104
12 -126 19 -22 7 -82 17 -134 20 -52 4 -108 13 -125 20 -18 8 -77 17 -131 21
-55 4 -113 13 -130 20 -16 6 -70 15 -120 19 -49 3 -110 13 -135 20 -25 8 -85
17 -135 21 -49 3 -99 11 -110 16 -58 30 -65 62 -15 73 16 3 34 13 41 21 6 8
17 14 24 14 7 0 23 9 37 19 13 11 36 23 51 26 14 4 31 13 38 21 6 8 20 14 30
14 11 0 27 9 36 20 10 11 25 20 34 20 9 0 27 8 40 19 13 10 35 22 49 26 13 4
36 15 50 24 53 35 72 46 120 66 8 3 33 17 55 30 22 13 72 40 110 59 39 20 77
40 85 45 8 5 26 14 40 20 14 6 43 22 65 36 22 13 47 27 55 30 34 14 56 25 70
35 8 5 26 15 40 21 14 5 43 21 65 34 22 14 51 29 65 35 14 5 32 14 40 20 16
11 48 28 157 84 40 20 75 41 78 46 3 5 18 11 34 15 16 3 35 12 41 20 6 8 24
17 40 20 16 3 31 13 34 21 3 8 14 14 24 14 11 0 30 8 43 19 13 10 35 22 49 26
13 4 36 15 50 24 38 25 57 36 165 91 55 28 104 55 108 59 15 15 -5 40 -71 90
-89 67 -109 82 -136 106 -13 11 -32 26 -42 32 -10 7 -34 23 -51 35 -18 13 -66
45 -105 72 -40 27 -77 55 -83 61 -5 6 -32 23 -59 39 -26 15 -57 37 -67 47 -10
10 -24 19 -31 19 -6 0 -19 6 -27 14 -9 8 -43 28 -76 45 -68 36 -88 48 -127 73
-15 10 -34 18 -41 18 -8 0 -25 8 -38 19 -13 10 -38 22 -56 25 -17 4 -37 14
-44 22 -6 8 -19 14 -29 14 -9 0 -38 11 -64 25 -26 14 -55 25 -65 25 -10 0 -24
6 -30 14 -7 8 -28 17 -48 21 -20 3 -45 12 -57 20 -12 7 -37 16 -56 20 -19 4
-44 13 -55 19 -11 7 -40 16 -65 20 -25 4 -54 13 -66 21 -12 7 -39 17 -60 20
-21 4 -48 13 -60 20 -11 7 -43 16 -70 20 -27 4 -56 13 -64 20 -8 7 -42 16 -74
20 -33 4 -69 13 -80 20 -12 7 -50 16 -85 20 -35 4 -78 13 -96 20 -17 8 -71 17
-121 21 -49 4 -106 13 -128 20 -21 8 -58 14 -82 14 -35 0 -44 -4 -44 -17z"/>
<path d="M6291 12016 c-7 -8 -26 -18 -42 -21 -16 -4 -31 -11 -35 -16 -3 -5
-20 -16 -37 -24 -18 -8 -39 -19 -47 -25 -8 -5 -26 -15 -40 -20 -14 -6 -43 -21
-65 -35 -22 -13 -47 -27 -55 -30 -34 -14 -56 -25 -70 -35 -8 -5 -26 -15 -40
-20 -14 -6 -43 -21 -65 -35 -22 -13 -51 -29 -65 -34 -14 -6 -32 -16 -40 -21
-8 -6 -26 -15 -40 -20 -14 -6 -32 -15 -40 -20 -8 -6 -28 -17 -45 -25 -16 -9
-37 -20 -45 -25 -8 -6 -26 -15 -40 -21 -14 -6 -61 -30 -105 -54 -44 -24 -111
-60 -150 -80 -38 -19 -77 -39 -85 -44 -8 -5 -26 -14 -40 -20 -14 -6 -43 -22
-65 -36 -22 -13 -47 -27 -55 -30 -34 -14 -56 -25 -70 -35 -8 -5 -26 -15 -40
-21 -14 -5 -43 -21 -65 -34 -22 -14 -51 -29 -65 -35 -14 -5 -32 -14 -40 -19
-14 -9 -123 -66 -189 -99 -14 -7 -33 -17 -41 -22 -8 -6 -29 -16 -46 -24 -17
-8 -35 -19 -38 -25 -4 -6 -15 -11 -25 -11 -10 0 -30 -9 -44 -20 -14 -11 -32
-20 -40 -20 -7 0 -24 -9 -37 -20 -13 -11 -29 -20 -35 -20 -7 0 -23 -9 -37 -19
-13 -11 -36 -23 -51 -26 -14 -4 -31 -13 -37 -20 -6 -8 -25 -17 -41 -20 -16 -4
-29 -10 -29 -15 0 -4 -17 -15 -37 -24 -21 -9 -45 -21 -53 -26 -8 -6 -26 -15
-40 -21 -14 -6 -61 -30 -105 -54 -44 -24 -112 -60 -152 -79 -40 -20 -75 -40
-78 -45 -3 -5 -18 -12 -34 -16 -16 -3 -35 -13 -42 -21 -6 -8 -20 -14 -30 -14
-11 0 -27 -9 -36 -20 -10 -11 -25 -20 -34 -20 -9 0 -27 -8 -40 -19 -13 -10
-35 -22 -49 -26 -13 -4 -36 -15 -50 -24 -45 -30 -65 -41 -90 -51 -14 -6 -32
-14 -40 -20 -8 -5 -43 -23 -77 -40 -92 -44 -84 -56 40 -59 37 -1 82 -8 100
-16 18 -7 75 -16 127 -20 52 -4 109 -13 126 -20 17 -7 76 -16 130 -20 55 -4
115 -13 134 -20 20 -7 78 -16 129 -20 52 -4 108 -13 125 -20 17 -7 76 -16 131
-20 55 -4 114 -13 131 -20 17 -7 73 -16 125 -20 51 -4 109 -13 129 -20 19 -7
76 -15 125 -19 50 -4 113 -14 140 -21 28 -8 67 -17 88 -20 25 -4 37 -11 38
-23 3 -41 -4 -78 -16 -92 -7 -8 -16 -53 -20 -100 -3 -47 -13 -120 -21 -164
-16 -90 -18 -220 -3 -286 5 -25 14 -90 20 -145 6 -55 16 -109 23 -120 7 -11
16 -42 20 -70 5 -27 14 -58 22 -69 8 -11 14 -29 14 -40 0 -20 16 -57 72 -171
40 -80 52 -102 70 -122 8 -10 17 -25 20 -33 10 -28 100 -155 151 -214 85 -97
261 -266 276 -266 5 0 40 -24 77 -53 63 -49 186 -117 211 -117 6 0 16 -6 22
-14 7 -8 27 -17 45 -20 19 -4 39 -13 46 -20 6 -8 30 -18 53 -21 23 -4 51 -13
62 -21 11 -7 38 -16 60 -20 22 -3 52 -13 66 -20 15 -7 57 -16 95 -20 38 -4 86
-13 108 -20 54 -19 359 -19 412 0 22 7 75 17 119 20 44 4 89 13 100 21 11 7
45 16 75 20 30 4 64 13 75 20 11 7 36 16 56 19 21 4 42 13 48 20 7 8 27 17 45
20 19 4 39 13 46 21 7 8 20 15 29 15 9 1 41 16 71 35 30 19 66 39 80 45 13 6
54 35 90 63 36 29 78 61 95 71 49 32 229 218 270 281 22 33 48 68 58 77 9 10
17 23 17 28 0 6 15 32 34 58 18 27 37 59 41 73 4 13 13 31 20 39 7 8 16 26 20
40 4 14 13 32 20 40 7 8 18 34 24 57 7 23 16 45 20 48 5 3 12 24 16 48 4 23
13 51 20 62 6 11 15 47 20 80 4 33 14 73 23 90 25 45 25 600 1 660 -10 22 -20
67 -24 100 -5 33 -14 69 -21 80 -7 11 -16 39 -20 62 -3 24 -13 48 -20 54 -8 6
-14 22 -14 34 0 12 -9 34 -20 48 -11 14 -20 31 -21 39 0 7 -16 40 -34 73 -19
33 -40 71 -47 85 -7 14 -38 58 -70 98 -32 40 -58 77 -58 81 0 5 -43 53 -95
107 -111 114 -116 133 -50 170 22 13 51 28 65 34 32 14 37 16 85 45 22 13 72
40 110 60 39 20 88 47 110 60 22 13 51 29 65 35 36 15 41 18 85 45 22 13 51
29 65 34 14 6 32 16 40 21 8 6 26 15 40 20 14 6 32 15 40 20 8 6 26 16 40 22
14 7 36 20 49 30 13 10 34 18 48 18 13 0 26 6 29 14 3 8 19 18 35 21 16 4 31
11 35 16 3 5 38 26 77 45 40 20 90 47 112 60 22 13 51 28 65 34 14 5 32 15 40
20 8 6 26 15 40 21 14 6 32 16 40 24 8 7 26 16 40 20 14 4 32 13 40 20 8 7 24
15 34 16 32 6 29 26 -5 33 -17 3 -58 6 -91 6 -32 0 -73 6 -91 13 -18 8 -77 17
-132 21 -54 4 -113 13 -130 21 -18 7 -78 16 -135 20 -57 4 -117 13 -134 20
-17 7 -76 16 -131 20 -55 4 -114 13 -131 20 -17 7 -76 16 -130 20 -55 4 -115
13 -134 20 -20 7 -78 16 -130 20 -52 4 -113 13 -135 21 -22 7 -80 16 -130 19
-49 4 -106 12 -125 20 -19 7 -80 16 -134 20 -55 4 -118 14 -140 21 -22 8 -81
17 -130 21 -50 3 -105 11 -123 18 -17 8 -78 16 -135 20 -56 4 -117 13 -134 20
-16 7 -75 16 -130 20 -54 4 -114 13 -133 21 -43 18 -65 18 -80 0z"/>
<path d="M1188 11773 c-196 -3 -218 -5 -227 -21 -6 -11 -9 -808 -8 -2097 l2
-2080 230 -6 c153 -5 252 -12 295 -22 36 -9 105 -19 154 -22 48 -4 102 -13
120 -20 17 -7 69 -16 116 -20 47 -4 99 -13 115 -20 17 -8 57 -17 90 -21 33 -3
71 -12 85 -19 14 -7 50 -16 80 -20 30 -4 64 -13 75 -20 11 -7 45 -16 75 -20
30 -4 64 -13 75 -20 11 -7 45 -16 75 -20 30 -4 64 -13 75 -20 11 -7 36 -16 55
-20 19 -4 44 -13 56 -20 12 -8 37 -17 57 -20 20 -4 41 -13 48 -21 6 -7 27 -16
48 -20 20 -4 52 -15 71 -25 19 -11 44 -19 56 -19 12 0 27 -6 33 -14 6 -8 31
-17 56 -20 24 -4 49 -13 55 -21 7 -8 27 -17 46 -21 18 -3 38 -12 45 -20 6 -7
26 -16 45 -20 18 -3 38 -12 44 -19 6 -8 24 -17 40 -20 16 -3 34 -12 40 -20 6
-8 25 -17 41 -20 17 -4 33 -13 36 -21 3 -8 13 -14 22 -14 9 0 32 -11 51 -25
19 -14 41 -25 50 -25 9 0 25 -9 35 -20 10 -11 25 -20 32 -20 8 0 26 -9 40 -20
14 -11 31 -20 37 -20 6 0 35 -16 65 -35 29 -19 57 -35 61 -35 5 0 21 -10 37
-23 15 -13 35 -27 43 -30 8 -4 26 -15 40 -25 14 -9 41 -26 59 -37 18 -11 63
-43 100 -70 36 -28 86 -64 110 -80 25 -17 61 -45 80 -62 20 -18 39 -33 43 -33
7 0 104 -78 146 -117 15 -14 45 -37 66 -51 22 -13 143 -127 270 -253 126 -126
234 -229 238 -229 16 0 7 27 -27 75 -19 28 -39 59 -44 71 -9 21 -107 166 -143
214 -58 76 -149 191 -165 208 -10 10 -44 50 -75 89 -65 79 -252 263 -343 338
-66 55 -70 57 -135 115 -25 22 -48 40 -51 40 -7 0 -131 97 -139 109 -7 9 -179
123 -210 139 -14 7 -43 23 -65 37 -22 13 -51 30 -65 37 -14 7 -46 27 -72 45
-26 18 -52 33 -57 33 -4 0 -19 9 -33 19 -13 11 -36 23 -51 26 -14 4 -31 13
-37 20 -6 8 -24 17 -40 20 -16 3 -34 12 -40 20 -6 8 -24 17 -40 20 -15 3 -45
15 -66 26 -21 10 -46 19 -55 19 -9 0 -22 6 -28 14 -7 8 -27 18 -44 21 -18 4
-41 13 -53 20 -12 8 -37 17 -57 20 -20 4 -41 13 -48 21 -6 7 -26 16 -45 20
-19 3 -51 15 -71 25 -21 11 -44 19 -53 19 -9 0 -24 6 -35 14 -11 7 -45 17 -75
21 -30 4 -64 13 -75 20 -11 7 -45 16 -75 20 -30 4 -64 13 -75 20 -11 7 -45 16
-75 20 -30 4 -68 13 -85 20 -16 7 -52 16 -80 20 -27 4 -63 14 -78 22 -16 8
-61 17 -100 20 -40 3 -90 11 -112 19 -22 7 -96 18 -165 23 -71 5 -149 17 -180
27 l-55 19 -5 1933 c-5 1900 -5 1934 -24 1948 -11 8 -29 13 -40 12 -12 -2
-119 -4 -238 -5z"/>
<path d="M35 10879 l-30 -16 -2 -2059 -3 -2059 35 -24 c35 -23 39 -24 397 -32
200 -5 415 -16 478 -23 63 -8 207 -18 320 -21 125 -4 221 -12 245 -20 22 -7
92 -16 155 -20 63 -3 138 -12 165 -20 28 -7 106 -16 175 -20 68 -3 138 -12
155 -19 16 -7 75 -16 130 -20 54 -4 113 -13 130 -20 17 -7 71 -17 120 -21 50
-3 100 -13 112 -20 11 -8 52 -17 90 -21 37 -4 79 -12 93 -19 14 -7 57 -16 95
-20 39 -4 79 -13 90 -20 11 -7 50 -16 85 -20 36 -4 76 -13 90 -20 14 -7 48
-16 75 -20 28 -4 59 -13 70 -20 11 -7 41 -16 65 -20 25 -4 54 -13 65 -20 11
-7 45 -16 75 -20 30 -4 64 -13 76 -20 12 -8 39 -17 60 -20 21 -4 49 -13 61
-21 12 -7 41 -16 65 -20 24 -4 50 -12 58 -19 8 -7 35 -15 60 -19 24 -4 51 -13
60 -21 8 -7 34 -18 57 -24 23 -7 45 -16 48 -21 3 -6 14 -10 23 -10 10 0 38
-11 64 -25 26 -14 54 -25 63 -25 9 0 28 -9 42 -20 14 -11 33 -20 41 -20 14 0
99 -39 132 -60 8 -6 26 -14 40 -20 14 -5 32 -14 40 -19 8 -5 26 -14 40 -20 14
-6 32 -15 40 -21 8 -5 26 -15 40 -21 43 -18 86 -44 128 -77 22 -18 44 -32 49
-32 5 0 32 -18 62 -40 64 -48 90 -53 64 -12 -20 30 -303 312 -314 312 -9 0
-122 91 -131 106 -10 16 -202 144 -216 144 -6 0 -15 6 -19 13 -10 15 -69 57
-81 57 -4 0 -23 11 -42 25 -19 14 -41 25 -50 25 -8 0 -23 9 -33 20 -9 11 -24
20 -34 20 -9 0 -24 6 -32 14 -16 14 -86 50 -171 89 -25 11 -52 24 -60 29 -8 4
-26 13 -40 19 -14 6 -38 17 -55 24 -16 7 -50 22 -75 33 -25 12 -58 24 -75 28
-16 4 -37 13 -46 21 -9 8 -34 17 -55 20 -22 3 -46 12 -54 19 -9 7 -35 16 -58
20 -24 4 -60 15 -80 25 -20 11 -48 19 -62 19 -14 0 -35 6 -46 14 -12 8 -45 18
-75 22 -30 3 -63 12 -74 19 -11 7 -47 15 -80 20 -33 4 -72 13 -86 20 -14 8
-54 17 -90 21 -35 3 -78 12 -96 19 -17 7 -62 16 -99 20 -38 5 -82 14 -99 21
-17 7 -64 15 -105 19 -41 4 -95 13 -120 20 -25 8 -103 17 -175 21 -71 4 -147
13 -168 20 -54 19 -667 38 -980 31 -237 -6 -249 -5 -267 13 -20 20 -20 45 -20
1939 0 1525 -3 1921 -12 1928 -7 4 -119 8 -248 8 -197 0 -239 -3 -265 -16z"/>
<path d="M19238 7110 c-31 -3 -63 -11 -70 -18 -6 -6 -22 -12 -34 -12 -12 0
-32 -8 -45 -18 -13 -11 -36 -22 -51 -25 -14 -4 -53 -36 -86 -72 -52 -57 -61
-73 -71 -125 -28 -142 15 -283 122 -399 36 -39 191 -156 337 -255 95 -64 220
-193 220 -226 0 -6 9 -28 20 -50 25 -50 25 -122 0 -175 -11 -22 -19 -45 -20
-52 0 -6 -20 -28 -44 -48 -33 -27 -59 -39 -108 -47 -79 -14 -95 -14 -190 0
-60 9 -89 19 -125 45 -53 37 -129 129 -138 167 -10 40 -50 84 -70 76 -14 -5
-16 -14 -12 -44 3 -20 9 -87 13 -148 l7 -112 82 -4 c55 -3 92 -10 109 -21 64
-43 398 -44 461 -3 14 9 30 16 36 16 42 0 219 156 219 193 0 6 8 19 18 30 14
16 17 38 16 138 -1 91 -4 123 -16 136 -8 10 -18 31 -22 47 -10 41 -40 80 -131
171 -84 83 -108 103 -188 158 -197 134 -265 193 -327 282 -32 47 -34 54 -35
137 0 83 1 88 30 118 53 56 99 73 195 73 67 0 95 -5 128 -22 22 -11 48 -21 56
-21 23 0 142 -122 159 -163 11 -26 22 -37 37 -37 30 0 35 24 16 91 -9 32 -16
73 -16 90 0 53 -15 69 -65 69 -24 0 -46 4 -50 9 -3 5 -31 13 -63 17 -31 3 -68
12 -82 19 -30 15 -143 23 -222 15z"/>
<path d="M6218 7069 c-13 -8 -2 -29 15 -29 7 0 44 -11 82 -25 56 -21 76 -34
98 -65 l27 -38 0 -615 0 -614 -29 -41 c-33 -45 -74 -59 -206 -71 -53 -5 -71
-10 -73 -22 -2 -9 3 -18 10 -20 7 -2 294 -2 637 1 l624 5 12 35 c18 52 30 336
15 345 -16 10 -30 -13 -30 -52 0 -58 -83 -178 -130 -188 -16 -3 -34 -13 -41
-21 -9 -11 -50 -14 -212 -14 -199 0 -200 0 -234 26 -61 46 -63 58 -63 323 l0
240 29 20 c26 19 44 21 171 21 151 0 234 -15 262 -48 13 -15 46 -92 62 -144 7
-24 26 -23 26 2 0 11 1 117 1 235 0 118 -1 220 -1 225 0 20 -29 10 -35 -12
-12 -42 -43 -104 -59 -117 -29 -24 -131 -40 -261 -41 -113 0 -134 3 -163 20
l-33 20 3 266 c3 222 5 266 18 274 8 5 113 10 232 10 l216 0 46 -45 c31 -32
47 -57 52 -83 8 -52 40 -136 51 -139 6 -2 13 2 15 9 9 25 -27 347 -40 360 -9
9 -1080 15 -1094 7z"/>
<path d="M10387 7072 c-37 -8 -8 -27 50 -35 73 -9 121 -28 148 -57 20 -22 20
-38 20 -669 l0 -648 -30 -30 c-17 -17 -45 -34 -63 -37 -37 -9 -85 -44 -77 -57
4 -5 162 -9 376 -9 318 0 369 2 369 15 0 15 -67 38 -145 50 -24 4 -56 19 -80
39 l-40 34 -3 236 c-2 137 1 243 6 253 9 15 30 17 199 14 163 -2 191 0 202 13
8 9 24 16 37 16 13 0 31 8 41 19 10 10 28 21 39 25 39 12 154 136 154 166 0 5
8 18 18 28 27 27 56 187 43 242 -6 25 -11 61 -11 80 0 19 -7 46 -15 60 -7 14
-20 39 -28 55 -30 60 -122 143 -178 160 -13 4 -35 14 -49 24 -22 14 -76 16
-495 16 -258 1 -478 -1 -488 -3z m773 -56 c55 -18 84 -34 116 -66 24 -24 44
-48 44 -55 0 -6 9 -29 21 -50 18 -35 21 -58 21 -180 1 -125 -1 -144 -21 -180
-11 -22 -21 -45 -21 -52 0 -21 -58 -99 -94 -126 -56 -43 -114 -61 -199 -62
-124 0 -117 -23 -117 390 0 192 4 355 9 369 17 42 131 48 241 12z"/>
<path d="M11978 7069 c-14 -9 -1 -29 19 -29 8 0 29 -6 46 -14 18 -8 48 -19 67
-25 22 -7 45 -26 63 -50 l27 -39 0 -617 0 -617 -30 -38 c-34 -43 -78 -57 -205
-69 -53 -5 -71 -10 -73 -22 -2 -9 3 -18 10 -20 7 -2 294 -2 637 1 l624 5 12
35 c18 52 30 336 15 345 -16 10 -30 -13 -30 -52 0 -58 -83 -178 -130 -188 -16
-3 -34 -13 -41 -21 -9 -11 -50 -14 -212 -14 -199 0 -200 0 -234 26 -61 46 -63
58 -63 323 l0 240 29 20 c26 19 43 21 168 21 142 0 230 -15 262 -44 13 -12 45
-83 65 -148 7 -24 26 -23 26 2 0 11 1 117 1 235 0 118 -1 220 -1 225 0 20 -29
10 -35 -12 -12 -42 -43 -104 -59 -117 -29 -24 -131 -40 -261 -41 -112 0 -134
3 -162 20 l-33 20 0 253 c0 212 2 256 16 275 15 22 19 22 234 22 l218 0 46
-45 c31 -32 47 -57 52 -83 8 -52 40 -136 51 -139 24 -8 23 31 -7 267 -6 52
-15 98 -18 102 -9 9 -1080 15 -1094 7z"/>
<path d="M13507 7072 c-30 -6 -13 -26 29 -34 21 -5 48 -12 59 -18 11 -5 31
-14 45 -19 14 -5 39 -28 55 -52 l30 -42 0 -611 0 -611 -30 -38 c-28 -35 -50
-46 -127 -62 -32 -6 -63 -34 -51 -46 7 -7 626 -14 741 -10 16 1 15 26 -2 41
-8 6 -48 16 -88 22 -146 22 -160 53 -164 363 -3 208 -2 222 17 254 l20 34 77
-6 c42 -3 85 -8 94 -12 18 -7 94 -103 116 -145 7 -14 32 -56 57 -95 25 -38 52
-83 60 -100 8 -16 28 -48 45 -70 16 -22 34 -50 39 -61 30 -68 183 -194 235
-194 9 0 27 -6 39 -14 24 -15 209 -38 233 -29 22 8 17 21 -18 39 -54 28 -94
62 -124 107 -16 23 -32 44 -36 47 -10 8 -58 80 -58 87 0 4 -29 50 -65 103 -36
53 -65 100 -65 103 0 4 -16 30 -35 57 -19 27 -35 54 -35 60 0 5 -8 18 -18 28
-26 26 -62 91 -62 112 0 20 32 49 103 92 25 16 63 54 88 90 l44 63 0 135 c0
125 -2 138 -22 164 -13 16 -23 34 -23 41 0 27 -119 140 -177 169 -32 16 -71
36 -88 45 -26 14 -87 16 -475 17 -245 0 -453 -1 -463 -4z m740 -52 c21 -11 42
-20 48 -20 5 0 31 -20 57 -44 51 -47 98 -125 98 -161 0 -13 7 -36 15 -51 47
-90 -28 -344 -115 -389 -16 -9 -30 -20 -30 -25 0 -5 -17 -12 -37 -16 -21 -4
-44 -11 -51 -17 -8 -6 -49 -11 -93 -12 -72 0 -81 2 -106 27 l-27 27 2 332 c1
395 -7 369 119 369 64 0 92 -5 120 -20z"/>
<path d="M15293 7063 c-8 -20 -2 -23 62 -28 72 -5 117 -26 147 -68 l23 -32 3
-598 c2 -393 -1 -610 -8 -636 -11 -42 -78 -111 -108 -111 -22 0 -82 -36 -82
-50 0 -16 742 -9 747 7 6 17 -26 31 -101 43 -82 13 -122 40 -147 98 -17 38
-19 70 -19 252 0 177 2 209 16 221 12 10 59 12 201 10 150 -2 188 0 201 12 9
8 30 17 46 21 53 13 164 108 210 181 73 115 71 109 71 255 0 123 -2 139 -25
185 -55 112 -127 187 -201 210 -13 4 -32 15 -43 24 -16 14 -70 16 -503 17
-409 1 -485 -1 -490 -13z m776 -45 c36 -12 79 -32 95 -45 36 -30 74 -86 82
-121 3 -15 12 -44 20 -65 18 -49 18 -195 0 -244 -8 -21 -17 -55 -21 -76 -12
-73 -100 -172 -181 -202 -27 -10 -82 -20 -121 -22 -70 -4 -74 -3 -103 25 l-30
30 0 344 0 343 25 28 c24 25 32 27 97 27 47 0 94 -8 137 -22z"/>
<path d="M16860 7072 c-13 -5 -13 -32 0 -32 6 0 37 -12 70 -26 52 -24 62 -33
85 -80 l26 -52 -2 -484 c0 -265 2 -496 6 -513 4 -16 13 -37 20 -45 7 -8 15
-27 18 -41 11 -43 148 -165 231 -204 40 -19 80 -35 90 -35 9 0 27 -6 39 -14
38 -25 277 -41 415 -27 66 6 133 17 149 25 15 7 54 27 86 42 90 45 227 191
227 243 0 8 7 22 15 31 8 9 19 49 24 88 5 39 13 77 17 84 5 7 11 213 14 458
l5 446 25 31 c26 32 103 73 139 73 20 0 38 17 28 26 -6 7 -538 7 -544 0 -9 -9
8 -26 26 -26 10 0 43 -11 72 -24 132 -59 145 -124 130 -666 -10 -351 -19 -450
-44 -478 -8 -9 -17 -26 -21 -38 -3 -11 -30 -44 -59 -73 -74 -74 -79 -77 -112
-85 -16 -4 -37 -14 -45 -21 -40 -36 -380 -36 -419 -1 -9 8 -28 17 -43 21 -29
7 -128 93 -128 111 0 6 -9 23 -20 37 -11 14 -23 40 -27 59 -3 18 -13 44 -22
58 -14 21 -16 83 -16 510 l0 486 25 31 c26 32 109 73 148 73 16 0 22 5 20 16
-3 14 -40 16 -321 17 -174 1 -322 1 -327 -1z"/>
<path d="M8532 6181 c-18 -11 -27 -148 -11 -167 10 -12 78 -14 420 -14 311 0
410 3 415 12 11 18 8 148 -3 159 -12 12 -803 21 -821 10z"/>
<path d="M5126 5695 c4 -8 10 -15 15 -15 5 0 9 7 9 15 0 8 -7 15 -15 15 -9 0
-12 -6 -9 -15z"/>
</g>
</svg>
